<?xml version="1.0" encoding="utf-8"?>
<!-- Generator: Adobe Illustrator 22.1.0, SVG Export Plug-In . SVG Version: 6.00 Build 0)  -->
<svg version="1.1" id="Layer_1" xmlns="http://www.w3.org/2000/svg" xmlns:xlink="http://www.w3.org/1999/xlink" x="0px" y="0px"
	 viewBox="0 0 512 512" style="enable-background:new 0 0 512 512;" xml:space="preserve">
<style type="text/css">
	.st0{fill:url(#SVGID_1_);}
	.st1{fill:url(#SVGID_2_);}
</style>
<linearGradient id="SVGID_1_" gradientUnits="userSpaceOnUse" x1="161.1522" y1="535.207" x2="547.1522" y2="203.207" gradientTransform="matrix(0.6989 0 0 0.6989 -67.1529 63.0402)">
	<stop  offset="0" style="stop-color:#1F8F8F"/>
	<stop  offset="1" style="stop-color:#00D9A0"/>
</linearGradient>
<path class="st0" d="M256,0C114.6,0,0,114.6,0,256c0,141.4,114.6,256,256,256c141.4,0,256-114.6,256-256
	C511.8,114.7,397.3,0.2,256,0z M256,480C132.3,480,32,379.7,32,256S132.3,32,256,32s224,100.3,224,224
	C479.9,379.7,379.7,479.9,256,480z"/>
<linearGradient id="SVGID_2_" gradientUnits="userSpaceOnUse" x1="142.6317" y1="513.6742" x2="528.6317" y2="181.6742" gradientTransform="matrix(0.6989 0 0 0.6989 -67.1529 63.0402)">
	<stop  offset="0" style="stop-color:#1F8F8F"/>
	<stop  offset="1" style="stop-color:#00D9A0"/>
</linearGradient>
<path class="st1" d="M176,329.4l-56.6-56.6l-22.6,22.6l67.9,67.9c6.3,6.2,16.4,6.2,22.6,0L391,159.7L368.3,137L176,329.4z"/>
</svg>
